<svg width="56" height="56" viewBox="0 0 56 56" fill="none" xmlns="http://www.w3.org/2000/svg">
<rect width="56" height="56" rx="12" fill="#FEC84B"/>
<path d="M38.5 25.6667C38.5 33.8334 28 40.8334 28 40.8334C28 40.8334 17.5 33.8334 17.5 25.6667C17.5 22.8819 18.6062 20.2112 20.5754 18.2421C22.5445 16.2729 25.2152 15.1667 28 15.1667C30.7848 15.1667 33.4555 16.2729 35.4246 18.2421C37.3938 20.2112 38.5 22.8819 38.5 25.6667Z" stroke="black" stroke-width="2.33333" stroke-linecap="round" stroke-linejoin="round"/>
<path d="M28 29.1667C29.933 29.1667 31.5 27.5997 31.5 25.6667C31.5 23.7337 29.933 22.1667 28 22.1667C26.067 22.1667 24.5 23.7337 24.5 25.6667C24.5 27.5997 26.067 29.1667 28 29.1667Z" stroke="black" stroke-width="2.33333" stroke-linecap="round" stroke-linejoin="round"/>
</svg>
