<svg  viewBox="0 0 17 20" fill="none" xmlns="http://www.w3.org/2000/svg">
<path d="M16 8.33334C16 14.1667 8.5 19.1667 8.5 19.1667C8.5 19.1667 1 14.1667 1 8.33334C1 6.34422 1.79018 4.43656 3.1967 3.03004C4.60322 1.62352 6.51088 0.833344 8.5 0.833344C10.4891 0.833344 12.3968 1.62352 13.8033 3.03004C15.2098 4.43656 16 6.34422 16 8.33334Z" stroke="black" stroke-width="1.66667" stroke-linecap="round" stroke-linejoin="round"/>
<path d="M8.5 10.8333C9.88071 10.8333 11 9.71405 11 8.33334C11 6.95263 9.88071 5.83334 8.5 5.83334C7.11929 5.83334 6 6.95263 6 8.33334C6 9.71405 7.11929 10.8333 8.5 10.8333Z" stroke="black" stroke-width="1.66667" stroke-linecap="round" stroke-linejoin="round"/>
</svg>
