<svg width="21" height="20" viewBox="0 0 21 20" fill="none" xmlns="http://www.w3.org/2000/svg">
<path d="M10.5002 12.5C11.8809 12.5 13.0002 11.3807 13.0002 10C13.0002 8.6193 11.8809 7.50001 10.5002 7.50001C9.11945 7.50001 8.00016 8.6193 8.00016 10C8.00016 11.3807 9.11945 12.5 10.5002 12.5Z" stroke="black" stroke-width="1.66667" stroke-linecap="round" stroke-linejoin="round"/>
<path d="M16.6668 12.5C16.5559 12.7514 16.5228 13.0302 16.5718 13.3005C16.6208 13.5708 16.7497 13.8203 16.9418 14.0167L16.9918 14.0667C17.1468 14.2215 17.2697 14.4053 17.3536 14.6076C17.4375 14.8099 17.4806 15.0268 17.4806 15.2458C17.4806 15.4649 17.4375 15.6817 17.3536 15.8841C17.2697 16.0864 17.1468 16.2702 16.9918 16.425C16.837 16.58 16.6532 16.7029 16.4509 16.7868C16.2486 16.8706 16.0317 16.9138 15.8127 16.9138C15.5936 16.9138 15.3768 16.8706 15.1744 16.7868C14.9721 16.7029 14.7883 16.58 14.6335 16.425L14.5835 16.375C14.3871 16.1829 14.1376 16.054 13.8673 16.005C13.597 15.956 13.3182 15.9891 13.0668 16.1C12.8204 16.2056 12.6101 16.381 12.4621 16.6046C12.314 16.8282 12.2346 17.0902 12.2335 17.3583V17.5C12.2335 17.942 12.0579 18.366 11.7453 18.6785C11.4328 18.9911 11.0089 19.1667 10.5668 19.1667C10.1248 19.1667 9.70088 18.9911 9.38832 18.6785C9.07576 18.366 8.90016 17.942 8.90016 17.5V17.425C8.89371 17.1492 8.80443 16.8817 8.64392 16.6573C8.48341 16.4328 8.25911 16.2619 8.00016 16.1667C7.74882 16.0557 7.47 16.0227 7.19967 16.0717C6.92934 16.1207 6.67989 16.2496 6.4835 16.4417L6.4335 16.4917C6.27871 16.6466 6.09489 16.7696 5.89256 16.8534C5.69023 16.9373 5.47335 16.9805 5.25433 16.9805C5.0353 16.9805 4.81843 16.9373 4.6161 16.8534C4.41377 16.7696 4.22995 16.6466 4.07516 16.4917C3.9202 16.3369 3.79727 16.1531 3.7134 15.9507C3.62952 15.7484 3.58635 15.5315 3.58635 15.3125C3.58635 15.0935 3.62952 14.8766 3.7134 14.6743C3.79727 14.4719 3.9202 14.2881 4.07516 14.1333L4.12516 14.0833C4.31728 13.8869 4.44615 13.6375 4.49517 13.3672C4.54418 13.0968 4.51109 12.818 4.40016 12.5667C4.29453 12.3202 4.11913 12.11 3.89555 11.9619C3.67198 11.8139 3.40998 11.7344 3.14183 11.7333H3.00016C2.55814 11.7333 2.13421 11.5577 1.82165 11.2452C1.50909 10.9326 1.3335 10.5087 1.3335 10.0667C1.3335 9.62465 1.50909 9.20073 1.82165 8.88817C2.13421 8.5756 2.55814 8.40001 3.00016 8.40001H3.07516C3.35099 8.39356 3.6185 8.30427 3.84291 8.14377C4.06732 7.98326 4.23826 7.75896 4.3335 7.50001C4.44443 7.24866 4.47752 6.96985 4.4285 6.69952C4.37948 6.42919 4.25061 6.17974 4.0585 5.98334L4.0085 5.93334C3.85354 5.77855 3.7306 5.59474 3.64673 5.39241C3.56286 5.19008 3.51968 4.9732 3.51968 4.75418C3.51968 4.53515 3.56286 4.31827 3.64673 4.11594C3.7306 3.91361 3.85354 3.7298 4.0085 3.57501C4.16328 3.42005 4.3471 3.29712 4.54943 3.21324C4.75176 3.12937 4.96864 3.0862 5.18766 3.0862C5.40669 3.0862 5.62357 3.12937 5.8259 3.21324C6.02823 3.29712 6.21204 3.42005 6.36683 3.57501L6.41683 3.62501C6.61323 3.81712 6.86268 3.946 7.133 3.99501C7.40333 4.04403 7.68215 4.01094 7.9335 3.90001H8.00016C8.24664 3.79437 8.45684 3.61897 8.60491 3.3954C8.75297 3.17182 8.83243 2.90983 8.8335 2.64168V2.50001C8.8335 2.05798 9.00909 1.63406 9.32165 1.3215C9.63421 1.00894 10.0581 0.833344 10.5002 0.833344C10.9422 0.833344 11.3661 1.00894 11.6787 1.3215C11.9912 1.63406 12.1668 2.05798 12.1668 2.50001V2.57501C12.1679 2.84317 12.2474 3.10516 12.3954 3.32873C12.5435 3.55231 12.7537 3.72771 13.0002 3.83334C13.2515 3.94427 13.5303 3.97736 13.8007 3.92835C14.071 3.87933 14.3204 3.75046 14.5168 3.55834L14.5668 3.50834C14.7216 3.35338 14.9054 3.23045 15.1078 3.14658C15.3101 3.0627 15.527 3.01953 15.746 3.01953C15.965 3.01953 16.1819 3.0627 16.3842 3.14658C16.5866 3.23045 16.7704 3.35338 16.9252 3.50834C17.0801 3.66313 17.2031 3.84695 17.2869 4.04928C17.3708 4.25161 17.414 4.46848 17.414 4.68751C17.414 4.90654 17.3708 5.12341 17.2869 5.32574C17.2031 5.52807 17.0801 5.71189 16.9252 5.86668L16.8752 5.91668C16.683 6.11308 16.5542 6.36252 16.5052 6.63285C16.4561 6.90318 16.4892 7.182 16.6002 7.43334V7.50001C16.7058 7.74648 16.8812 7.95669 17.1048 8.10475C17.3283 8.25282 17.5903 8.33227 17.8585 8.33334H18.0002C18.4422 8.33334 18.8661 8.50894 19.1787 8.8215C19.4912 9.13406 19.6668 9.55798 19.6668 10C19.6668 10.442 19.4912 10.866 19.1787 11.1785C18.8661 11.4911 18.4422 11.6667 18.0002 11.6667H17.9252C17.657 11.6677 17.395 11.7472 17.1714 11.8953C16.9479 12.0433 16.7725 12.2535 16.6668 12.5Z" stroke="black" stroke-width="1.66667" stroke-linecap="round" stroke-linejoin="round"/>
</svg>
