<svg width="17" height="20" viewBox="0 0 17 20" fill="none" xmlns="http://www.w3.org/2000/svg">
<path d="M4.33333 9.16666V5.83332C4.33333 4.72825 4.77232 3.66845 5.55372 2.88704C6.33512 2.10564 7.39493 1.66666 8.5 1.66666C9.60507 1.66666 10.6649 2.10564 11.4463 2.88704C12.2277 3.66845 12.6667 4.72825 12.6667 5.83332V9.16666M2.66667 9.16666H14.3333C15.2538 9.16666 16 9.91285 16 10.8333V16.6667C16 17.5871 15.2538 18.3333 14.3333 18.3333H2.66667C1.74619 18.3333 1 17.5871 1 16.6667V10.8333C1 9.91285 1.74619 9.16666 2.66667 9.16666Z" stroke="black" stroke-width="1.66667" stroke-linecap="round" stroke-linejoin="round"/>
</svg>
