<?xml version="1.0" encoding="UTF-8"?>
<svg xmlns="http://www.w3.org/2000/svg" viewBox="0 0 750 500">
  <g id="freepik--background-simple--inject-21">
    <path d="M88,181.84s57.88-79.35,176.43-97.08,251.1,88.68,304.31,128.82,156.1,76,166.16,140-23.12,95.33-23.12,95.33H41.29S18,341.46,44.09,271.45,88,181.84,88,181.84Z" style="fill:#FDB022"></path>
    <path d="M88,181.84s57.88-79.35,176.43-97.08,251.1,88.68,304.31,128.82,156.1,76,166.16,140-23.12,95.33-23.12,95.33H41.29S18,341.46,44.09,271.45,88,181.84,88,181.84Z" style="fill:#fff;opacity:0.7000000000000001"></path>
  </g>
  <g id="freepik--pillar-2--inject-21">
    <rect x="591.74" y="43.63" width="119.63" height="405.3" style="fill:#fff;stroke:#263238;stroke-linecap:round;stroke-linejoin:round"></rect>
    <rect x="591.74" y="292.63" width="119.63" height="156.3" style="fill:#FDB022;stroke:#263238;stroke-linecap:round;stroke-linejoin:round"></rect>
    <polygon points="658.65 395.56 594.61 331.52 594.61 351.92 658.65 415.96 658.65 395.56" style="fill:#263238"></polygon>
    <polygon points="709.15 446.06 693.17 430.08 693.17 446.06 709.15 446.06" style="fill:#263238"></polygon>
    <polygon points="658.65 446.06 658.65 434.58 594.61 370.54 594.61 390.94 649.73 446.06 658.65 446.06" style="fill:#263238"></polygon>
    <polygon points="658.65 356.54 597.57 295.46 594.61 295.46 594.61 312.9 658.65 376.94 658.65 356.54" style="fill:#263238"></polygon>
    <polygon points="693.17 391.06 693.17 411.46 711.37 429.66 711.37 409.26 693.17 391.06" style="fill:#263238"></polygon>
    <polygon points="631.11 446.06 594.61 409.56 594.61 429.95 610.71 446.06 631.11 446.06" style="fill:#263238"></polygon>
    <polygon points="658.65 317.52 636.59 295.46 616.19 295.46 658.65 337.92 658.65 317.52" style="fill:#263238"></polygon>
    <polygon points="693.17 352.04 693.17 372.44 711.37 390.64 711.37 370.24 693.17 352.04" style="fill:#263238"></polygon>
    <rect x="662.88" y="43.63" width="48.49" height="405.3" style="fill:#fff;stroke:#263238;stroke-linecap:round;stroke-linejoin:round"></rect>
    <rect x="662.88" y="292.63" width="48.49" height="156.3" style="fill:#FDB022;stroke:#263238;stroke-linecap:round;stroke-linejoin:round"></rect>
    <polygon points="666.15 363.23 666.15 383.63 709.68 340.1 709.68 319.7 666.15 363.23" style="fill:#263238"></polygon>
    <polygon points="666.15 441.26 666.15 448.93 678.89 448.93 709.68 418.14 709.68 397.74 666.15 441.26" style="fill:#263238"></polygon>
    <polygon points="695.4 294.96 666.15 324.21 666.15 344.61 709.68 301.08 709.68 294.96 695.4 294.96" style="fill:#263238"></polygon>
    <polygon points="666.15 402.25 666.15 422.64 709.68 379.12 709.68 358.72 666.15 402.25" style="fill:#263238"></polygon>
    <polygon points="709.68 436.75 697.51 448.93 709.68 448.93 709.68 436.75" style="fill:#263238"></polygon>
  </g>
  <g id="freepik--lights-2--inject-21">
    <line x1="346.4" y1="78.16" x2="346.4" y2="43.63" style="fill:none;stroke:#263238;stroke-linecap:round;stroke-linejoin:round"></line>
    <line x1="321.94" y1="78.16" x2="321.94" y2="43.63" style="fill:#fff;stroke:#000;stroke-miterlimit:10"></line>
    <line x1="297.48" y1="78.16" x2="297.48" y2="43.63" style="fill:#fff;stroke:#000;stroke-miterlimit:10"></line>
    <line x1="433.46" y1="78.16" x2="433.46" y2="43.63" style="fill:none;stroke:#263238;stroke-linecap:round;stroke-linejoin:round"></line>
    <line x1="409" y1="78.16" x2="409" y2="43.63" style="fill:#fff;stroke:#000;stroke-miterlimit:10"></line>
    <line x1="384.54" y1="78.16" x2="384.54" y2="43.63" style="fill:#fff;stroke:#000;stroke-miterlimit:10"></line>
    <line x1="520.53" y1="78.16" x2="520.53" y2="43.63" style="fill:none;stroke:#263238;stroke-linecap:round;stroke-linejoin:round"></line>
    <line x1="496.06" y1="78.16" x2="496.06" y2="43.63" style="fill:#fff;stroke:#000;stroke-miterlimit:10"></line>
    <line x1="471.6" y1="78.16" x2="471.6" y2="43.63" style="fill:#fff;stroke:#000;stroke-miterlimit:10"></line>
    <line x1="607.59" y1="78.16" x2="607.59" y2="43.63" style="fill:none;stroke:#263238;stroke-linecap:round;stroke-linejoin:round"></line>
    <line x1="583.12" y1="78.16" x2="583.12" y2="43.63" style="fill:#fff;stroke:#000;stroke-miterlimit:10"></line>
    <line x1="558.66" y1="78.16" x2="558.66" y2="43.63" style="fill:#fff;stroke:#000;stroke-miterlimit:10"></line>
    <rect x="552.71" y="78.96" width="72.38" height="12.94" style="fill:#263238;stroke:#263238;stroke-linecap:round;stroke-linejoin:round"></rect>
    <rect x="552.71" y="83.4" width="72.38" height="8.5" style="fill:#fff;stroke:#263238;stroke-linecap:round;stroke-linejoin:round"></rect>
    <rect x="575.08" y="83.4" width="50.01" height="8.5" style="fill:#fff;stroke:#263238;stroke-linecap:round;stroke-linejoin:round"></rect>
    <rect x="462.42" y="78.96" width="72.38" height="12.94" style="fill:#263238;stroke:#263238;stroke-linecap:round;stroke-linejoin:round"></rect>
    <rect x="462.42" y="83.4" width="72.38" height="8.5" style="fill:#fff;stroke:#263238;stroke-linecap:round;stroke-linejoin:round"></rect>
    <rect x="484.79" y="83.4" width="50.01" height="8.5" style="fill:#fff;stroke:#263238;stroke-linecap:round;stroke-linejoin:round"></rect>
    <rect x="372.14" y="78.96" width="72.38" height="12.94" style="fill:#263238;stroke:#263238;stroke-linecap:round;stroke-linejoin:round"></rect>
    <rect x="372.14" y="83.4" width="72.38" height="8.5" style="fill:#fff;stroke:#263238;stroke-linecap:round;stroke-linejoin:round"></rect>
    <rect x="394.51" y="83.4" width="50.01" height="8.5" style="fill:#fff;stroke:#263238;stroke-linecap:round;stroke-linejoin:round"></rect>
    <rect x="281.85" y="78.96" width="72.38" height="12.94" style="fill:#263238;stroke:#263238;stroke-linecap:round;stroke-linejoin:round"></rect>
    <rect x="281.85" y="83.4" width="72.38" height="8.5" style="fill:#fff;stroke:#263238;stroke-linecap:round;stroke-linejoin:round"></rect>
    <rect x="304.22" y="83.4" width="50.01" height="8.5" style="fill:#fff;stroke:#263238;stroke-linecap:round;stroke-linejoin:round"></rect>
    <rect x="280.21" y="64.49" width="343.93" height="5.76" style="fill:#263238;stroke:#263238;stroke-linecap:round;stroke-linejoin:round"></rect>
  </g>
  <g id="freepik--car-2--inject-21">
    <path d="M600.34,399.1h-8.77l-.13.19a14.29,14.29,0,0,0-2.27-.19c-10.69,0-19.36,11.15-19.36,24.91s8.67,24.92,19.36,24.92a15.56,15.56,0,0,0,2.27-.19l.13.19h8.77c10.69,0,19.36-11.16,19.36-24.92S611,399.1,600.34,399.1Z" style="fill:#263238;stroke:#263238;stroke-linecap:round;stroke-linejoin:round"></path>
    <path d="M420.69,399.1h-8.77l-.13.19a14.29,14.29,0,0,0-2.27-.19c-10.69,0-19.36,11.15-19.36,24.91s8.67,24.92,19.36,24.92a15.56,15.56,0,0,0,2.27-.19l.13.19h8.77c10.69,0,19.36-11.16,19.36-24.92S431.38,399.1,420.69,399.1Z" style="fill:#263238;stroke:#263238;stroke-linecap:round;stroke-linejoin:round"></path>
    <path d="M683.8,399.83h-4.21l-3.77-26.43a6.54,6.54,0,0,0-6.47-5.61H645.76l-38.3-40.65a21.92,21.92,0,0,0-16-6.89H490a16.22,16.22,0,0,0-11.72,5l-174.4,73.62V430H565.31l65.62-.47,48.66-3.19v-.22h4a1.6,1.6,0,0,0,1.6-1.6V401.22A1.39,1.39,0,0,0,683.8,399.83Z" style="fill:#b2b2b2;stroke:#263238;stroke-linecap:round;stroke-linejoin:round"></path>
    <path d="M609.52,425.18v4.46l21.41-.15,48.66-3.19v-.22h4a1.58,1.58,0,0,0,1.42-.9Z" style="fill:#263238;stroke:#263238;stroke-linecap:round;stroke-linejoin:round"></path>
    <path d="M630.93,429.49h0a1.6,1.6,0,0,0-.1-3.19H606.22l-91-106H490a16.22,16.22,0,0,0-11.72,5l-174.4,73.62V430H565.31Z" style="fill:#263238;stroke:#263238;stroke-linecap:round;stroke-linejoin:round"></path>
    <path d="M344.57,399.1H335.8l-5.75,8.44a30.44,30.44,0,0,0,0,32.94l5.75,8.45h8.77c10.7,0,19.37-11.16,19.37-24.92S355.27,399.1,344.57,399.1Z" style="fill:#263238;stroke:#263238;stroke-linecap:round;stroke-linejoin:round"></path>
    <ellipse cx="333.41" cy="424.01" rx="19.36" ry="24.91" style="fill:#636363;stroke:#263238;stroke-linecap:round;stroke-linejoin:round"></ellipse>
    <ellipse cx="333.41" cy="424.01" rx="15.45" ry="19.87" style="fill:#fff;stroke:#263238;stroke-linecap:round;stroke-linejoin:round"></ellipse>
    <path d="M336.68,424c0,2.32-1.47,4.2-3.27,4.2s-3.26-1.88-3.26-4.2,1.46-4.2,3.26-4.2S336.68,421.69,336.68,424Z" style="fill:#fff;stroke:#263238;stroke-linecap:round;stroke-linejoin:round"></path>
    <path d="M540,399.1h-8.78l-5.75,8.44a30.44,30.44,0,0,0,0,32.94l5.75,8.45H540c10.69,0,19.36-11.16,19.36-24.92S550.69,399.1,540,399.1Z" style="fill:#263238;stroke:#263238;stroke-linecap:round;stroke-linejoin:round"></path>
    <ellipse cx="528.83" cy="424.01" rx="19.36" ry="24.91" style="fill:#636363;stroke:#263238;stroke-linecap:round;stroke-linejoin:round"></ellipse>
    <ellipse cx="528.83" cy="424.01" rx="15.45" ry="19.87" style="fill:#fff;stroke:#263238;stroke-linecap:round;stroke-linejoin:round"></ellipse>
    <path d="M532.1,424c0,2.32-1.46,4.2-3.27,4.2s-3.26-1.88-3.26-4.2,1.46-4.2,3.26-4.2S532.1,421.69,532.1,424Z" style="fill:#fff;stroke:#263238;stroke-linecap:round;stroke-linejoin:round"></path>
    <path d="M607.46,327.14c-.32-.33-.66-.64-1-.95h-79.1v39.08h116Z" style="fill:#263238;stroke:#263238;stroke-linecap:round;stroke-linejoin:round"></path>
    <path d="M616.55,399.83h-4.61l-4.58-32H578.11l-38.3-40.65a22,22,0,0,0-16-6.89H430.63a16.22,16.22,0,0,0-11.72,5L359.37,365l-55.08,23.77-8.62,11.58a16.5,16.5,0,0,0-3.27,9.85V430h17.38v-6.57c0-16.07,11.68-29.09,26.09-29.09h0c12.84,0,20.82,10.41,22.82,24.55L360.26,430H505.43v-6.57c0-16.07,6.59-29.09,24.3-29.09h0c15.79,0,21.44,10.41,23.9,24.55l1.85,10.64,56.46-3.19v-.22h4.61Z" style="fill:#b2b2b2;stroke:#263238;stroke-linecap:round;stroke-linejoin:round"></path>
    <path d="M419.41,331.1,368.29,365h95.54V326.65H430A14.79,14.79,0,0,0,419.41,331.1Z" style="fill:#263238;stroke:#263238;stroke-linecap:round;stroke-linejoin:round"></path>
    <path d="M408.31,365l30.3-38.39H430a14.79,14.79,0,0,0-10.59,4.45L401.52,343,384.11,365Z" style="fill:#fff;stroke:#263238;stroke-linecap:round;stroke-linejoin:round"></path>
    <polygon points="463.83 365.04 463.83 337.47 442.07 365.04 463.83 365.04" style="fill:#fff;stroke:#263238;stroke-linecap:round;stroke-linejoin:round"></polygon>
    <path d="M536.62,332.9l21.73,22.23a5.78,5.78,0,0,1,1.49,2.66h0a5.83,5.83,0,0,1-5.66,7.25H470.23V326.65h51.53A20.78,20.78,0,0,1,536.62,332.9Z" style="fill:#263238;stroke:#263238;stroke-linecap:round;stroke-linejoin:round"></path>
    <polygon points="516.26 326.65 507.82 326.65 477.52 365.04 485.96 365.04 516.26 326.65" style="fill:#fff;stroke:#263238;stroke-linecap:round;stroke-linejoin:round"></polygon>
    <polygon points="470.23 329.36 470.23 360.03 496.57 326.65 472.37 326.65 470.23 329.36" style="fill:#fff;stroke:#263238;stroke-linecap:round;stroke-linejoin:round"></polygon>
    <path d="M607.36,367.79h62a6.54,6.54,0,0,1,6.47,5.61l3.77,26.43H611.94Z" style="fill:#b2b2b2;stroke:#263238;stroke-linecap:round;stroke-linejoin:round"></path>
    <rect x="636.81" y="382.24" width="29.4" height="12.07" style="fill:#fff;stroke:#263238;stroke-linecap:round;stroke-linejoin:round"></rect>
    <line x1="682.82" y1="404.77" x2="556.85" y2="404.77" style="fill:#fff;stroke:#263238;stroke-linecap:round;stroke-linejoin:round;stroke-width:2px"></line>
    <line x1="500.56" y1="404.77" x2="360.97" y2="404.77" style="fill:#fff;stroke:#263238;stroke-linecap:round;stroke-linejoin:round;stroke-width:2px"></line>
    <line x1="314.62" y1="404.77" x2="298.64" y2="404.77" style="fill:#fff;stroke:#263238;stroke-linecap:round;stroke-linejoin:round;stroke-width:2px"></line>
    <path d="M631.73,382.43H604a6.91,6.91,0,0,0-6.19,3.83l-4.65,9.29a2.79,2.79,0,0,0,2.5,4h36.11Z" style="fill:#b2b2b2;stroke:#263238;stroke-linecap:round;stroke-linejoin:round"></path>
    <polygon points="631.73 382.43 609.35 382.43 611.8 399.59 631.73 399.59 631.73 382.43" style="fill:#263238;stroke:#263238;stroke-linecap:round;stroke-linejoin:round"></polygon>
    <polygon points="677 382.43 670.22 382.43 670.14 399.59 679.45 399.59 677 382.43" style="fill:#263238;stroke:#263238;stroke-linecap:round;stroke-linejoin:round"></polygon>
    <rect x="358.69" y="357.04" width="17.83" height="15.09" rx="2" style="fill:#263238;stroke:#263238;stroke-linecap:round;stroke-linejoin:round"></rect>
    <rect x="444.4" y="372.13" width="17.14" height="6.86" style="fill:#263238;stroke:#263238;stroke-linecap:round;stroke-linejoin:round"></rect>
    <line x1="465.66" y1="369.39" x2="465.66" y2="421.5" style="fill:none;stroke:#263238;stroke-linecap:round;stroke-linejoin:round"></line>
    <path d="M349.77,392.7s12.56,7.09,14.17,31.31H497.2" style="fill:none;stroke:#263238;stroke-linecap:round;stroke-linejoin:round"></path>
    <path d="M560.28,403s-6.56-17.15-28.54-17.15c-15.32,0-22.65,8.05-26.31,14.4" style="fill:none;stroke:#263238;stroke-linecap:round;stroke-linejoin:round"></path>
  </g>
  <g id="freepik--car-1--inject-21">
    <path d="M401.85,399.1h-8.77l-.13.19a14.07,14.07,0,0,0-2.26-.19c-10.7,0-19.36,11.15-19.36,24.91s8.66,24.92,19.36,24.92a15.31,15.31,0,0,0,2.26-.19l.13.19h8.77c10.69,0,19.36-11.16,19.36-24.92S412.54,399.1,401.85,399.1Z" style="fill:#263238;stroke:#263238;stroke-linecap:round;stroke-linejoin:round"></path>
    <path d="M222.2,399.1h-8.77l-.13.19a14.07,14.07,0,0,0-2.26-.19c-10.7,0-19.36,11.15-19.36,24.91s8.66,24.92,19.36,24.92a15.31,15.31,0,0,0,2.26-.19l.13.19h8.77c10.69,0,19.36-11.16,19.36-24.92S232.89,399.1,222.2,399.1Z" style="fill:#263238;stroke:#263238;stroke-linecap:round;stroke-linejoin:round"></path>
    <path d="M485.31,399.83H481.1l-3.77-26.43a6.53,6.53,0,0,0-6.46-5.61H447.28L409,327.14a22,22,0,0,0-16-6.89H291.47a16.2,16.2,0,0,0-11.72,5l-174.4,73.62V430H366.82l65.63-.47,48.65-3.19v-.22h4a1.6,1.6,0,0,0,1.59-1.6V401.22A1.39,1.39,0,0,0,485.31,399.83Z" style="fill:#fff;stroke:#263238;stroke-linecap:round;stroke-linejoin:round"></path>
    <path d="M411,425.18v4.46l21.42-.15,48.65-3.19v-.22h4a1.58,1.58,0,0,0,1.41-.9Z" style="fill:#263238;stroke:#263238;stroke-linecap:round;stroke-linejoin:round"></path>
    <path d="M432.45,429.49h0a1.6,1.6,0,0,0-.11-3.19h-24.6l-91-106H291.47a16.2,16.2,0,0,0-11.72,5l-174.4,73.62V430H366.82Z" style="fill:#263238;stroke:#263238;stroke-linecap:round;stroke-linejoin:round"></path>
    <path d="M146.09,399.1h-8.77l-5.75,8.44a30.44,30.44,0,0,0,0,32.94l5.75,8.45h8.77c10.69,0,19.36-11.16,19.36-24.92S156.78,399.1,146.09,399.1Z" style="fill:#263238;stroke:#263238;stroke-linecap:round;stroke-linejoin:round"></path>
    <ellipse cx="134.93" cy="424.01" rx="19.36" ry="24.91" style="fill:#636363;stroke:#263238;stroke-linecap:round;stroke-linejoin:round"></ellipse>
    <ellipse cx="134.93" cy="424.01" rx="15.45" ry="19.87" style="fill:#fff;stroke:#263238;stroke-linecap:round;stroke-linejoin:round"></ellipse>
    <path d="M138.19,424c0,2.32-1.46,4.2-3.26,4.2s-3.27-1.88-3.27-4.2,1.46-4.2,3.27-4.2S138.19,421.69,138.19,424Z" style="fill:#fff;stroke:#263238;stroke-linecap:round;stroke-linejoin:round"></path>
    <path d="M341.51,399.1h-8.77L327,407.54a30.44,30.44,0,0,0,0,32.94l5.75,8.45h8.77c10.69,0,19.36-11.16,19.36-24.92S352.2,399.1,341.51,399.1Z" style="fill:#263238;stroke:#263238;stroke-linecap:round;stroke-linejoin:round"></path>
    <path d="M349.71,424c0,13.76-8.67,24.92-19.36,24.92S311,437.77,311,424s8.66-24.91,19.36-24.91S349.71,410.25,349.71,424Z" style="fill:#636363;stroke:#263238;stroke-linecap:round;stroke-linejoin:round"></path>
    <path d="M345.79,424c0,11-6.91,19.88-15.44,19.88S314.9,435,314.9,424s6.92-19.87,15.45-19.87S345.79,413,345.79,424Z" style="fill:#fff;stroke:#263238;stroke-linecap:round;stroke-linejoin:round"></path>
    <path d="M333.61,424c0,2.32-1.46,4.2-3.26,4.2s-3.27-1.88-3.27-4.2,1.47-4.2,3.27-4.2S333.61,421.69,333.61,424Z" style="fill:#fff;stroke:#263238;stroke-linecap:round;stroke-linejoin:round"></path>
    <path d="M409,327.14c-.32-.33-.66-.64-1-.95h-79.1v39.08h116Z" style="fill:#263238;stroke:#263238;stroke-linecap:round;stroke-linejoin:round"></path>
    <path d="M418.06,399.83h-4.61l-4.57-32H379.62l-38.3-40.65a21.92,21.92,0,0,0-16-6.89h-93.2a16.24,16.24,0,0,0-11.73,5L160.89,365l-55.08,23.77-8.62,11.58a16.5,16.5,0,0,0-3.27,9.85V430h17.37v-6.57c0-16.07,11.68-29.09,26.09-29.09h0c12.84,0,20.82,10.41,22.82,24.55L161.78,430H306.94v-6.57c0-16.07,6.59-29.09,24.31-29.09h0c15.79,0,21.43,10.41,23.89,24.55L357,429.49l56.45-3.19v-.22h4.61Z" style="fill:#fff;stroke:#263238;stroke-linecap:round;stroke-linejoin:round"></path>
    <path d="M220.92,331.1,169.8,365h95.54V326.65H231.51A14.82,14.82,0,0,0,220.92,331.1Z" style="fill:#263238;stroke:#263238;stroke-linecap:round;stroke-linejoin:round"></path>
    <path d="M209.82,365l30.3-38.39h-8.61a14.82,14.82,0,0,0-10.59,4.45L203,343,185.62,365Z" style="fill:#fff;stroke:#263238;stroke-linecap:round;stroke-linejoin:round"></path>
    <polygon points="265.34 365.04 265.34 337.47 243.58 365.04 265.34 365.04" style="fill:#fff;stroke:#263238;stroke-linecap:round;stroke-linejoin:round"></polygon>
    <path d="M338.14,332.9l21.73,22.23a5.87,5.87,0,0,1,1.49,2.66h0a5.84,5.84,0,0,1-5.67,7.25H271.74V326.65h51.53A20.79,20.79,0,0,1,338.14,332.9Z" style="fill:#263238;stroke:#263238;stroke-linecap:round;stroke-linejoin:round"></path>
    <polygon points="317.78 326.65 309.34 326.65 279.04 365.04 287.48 365.04 317.78 326.65" style="fill:#fff;stroke:#263238;stroke-linecap:round;stroke-linejoin:round"></polygon>
    <polygon points="271.74 329.36 271.74 360.03 298.08 326.65 273.88 326.65 271.74 329.36" style="fill:#fff;stroke:#263238;stroke-linecap:round;stroke-linejoin:round"></polygon>
    <path d="M408.88,367.79h62a6.53,6.53,0,0,1,6.46,5.61l3.77,26.43H413.45Z" style="fill:#fff;stroke:#263238;stroke-linecap:round;stroke-linejoin:round"></path>
    <rect x="438.32" y="382.24" width="29.4" height="12.07" style="fill:#fff;stroke:#263238;stroke-linecap:round;stroke-linejoin:round"></rect>
    <line x1="484.34" y1="404.77" x2="358.37" y2="404.77" style="fill:#fff;stroke:#263238;stroke-linecap:round;stroke-linejoin:round;stroke-width:2px"></line>
    <line x1="302.08" y1="404.77" x2="162.48" y2="404.77" style="fill:#fff;stroke:#263238;stroke-linecap:round;stroke-linejoin:round;stroke-width:2px"></line>
    <line x1="116.14" y1="404.77" x2="100.16" y2="404.77" style="fill:#fff;stroke:#263238;stroke-linecap:round;stroke-linejoin:round;stroke-width:2px"></line>
    <path d="M433.25,382.43H405.47a6.91,6.91,0,0,0-6.19,3.83l-4.64,9.29a2.79,2.79,0,0,0,2.5,4h36.11Z" style="fill:#b2b2b2;stroke:#263238;stroke-linecap:round;stroke-linejoin:round"></path>
    <polygon points="433.25 382.43 410.86 382.43 413.31 399.59 433.25 399.59 433.25 382.43" style="fill:#263238;stroke:#263238;stroke-linecap:round;stroke-linejoin:round"></polygon>
    <polygon points="478.52 382.43 471.74 382.43 471.65 399.59 480.96 399.59 478.52 382.43" style="fill:#263238;stroke:#263238;stroke-linecap:round;stroke-linejoin:round"></polygon>
    <rect x="160.2" y="357.04" width="17.83" height="15.09" rx="2" style="fill:#263238;stroke:#263238;stroke-linecap:round;stroke-linejoin:round"></rect>
    <rect x="245.91" y="372.13" width="17.14" height="6.86" style="fill:#263238;stroke:#263238;stroke-linecap:round;stroke-linejoin:round"></rect>
    <line x1="267.17" y1="369.39" x2="267.17" y2="421.5" style="fill:none;stroke:#263238;stroke-linecap:round;stroke-linejoin:round"></line>
    <path d="M151.29,392.7s12.55,7.09,14.16,31.31H298.71" style="fill:none;stroke:#263238;stroke-linecap:round;stroke-linejoin:round"></path>
    <path d="M361.8,403s-6.57-17.15-28.55-17.15c-15.32,0-22.64,8.05-26.31,14.4" style="fill:none;stroke:#263238;stroke-linecap:round;stroke-linejoin:round"></path>
  </g>
  <g id="freepik--Character--inject-21"></g>
  <g id="freepik--pillar-1--inject-21">
    <rect x="185.93" y="43.63" width="119.63" height="405.3" style="fill:#fff;stroke:#263238;stroke-linecap:round;stroke-linejoin:round"></rect>
    <rect x="185.93" y="292.63" width="119.63" height="156.3" style="fill:#FDB022;stroke:#263238;stroke-linecap:round;stroke-linejoin:round"></rect>
    <polygon points="252.84 395.56 188.8 331.52 188.8 351.92 252.84 415.96 252.84 395.56" style="fill:#263238"></polygon>
    <polygon points="303.33 446.06 287.36 430.08 287.36 446.06 303.33 446.06" style="fill:#263238"></polygon>
    <polygon points="252.84 446.06 252.84 434.58 188.8 370.54 188.8 390.94 243.92 446.06 252.84 446.06" style="fill:#263238"></polygon>
    <polygon points="252.84 356.54 191.76 295.46 188.8 295.46 188.8 312.9 252.84 376.94 252.84 356.54" style="fill:#263238"></polygon>
    <polygon points="287.36 391.06 287.36 411.46 305.56 429.66 305.56 409.26 287.36 391.06" style="fill:#263238"></polygon>
    <polygon points="225.3 446.06 188.8 409.56 188.8 429.95 204.9 446.06 225.3 446.06" style="fill:#263238"></polygon>
    <polygon points="252.84 317.52 230.78 295.46 210.38 295.46 252.84 337.92 252.84 317.52" style="fill:#263238"></polygon>
    <polygon points="287.36 352.04 287.36 372.44 305.56 390.64 305.56 370.24 287.36 352.04" style="fill:#263238"></polygon>
    <rect x="257.06" y="43.63" width="48.49" height="405.3" style="fill:#fff;stroke:#263238;stroke-linecap:round;stroke-linejoin:round"></rect>
    <rect x="257.06" y="292.63" width="48.49" height="156.3" style="fill:#FDB022;stroke:#263238;stroke-linecap:round;stroke-linejoin:round"></rect>
    <polygon points="260.34 363.23 260.34 383.63 303.87 340.1 303.87 319.7 260.34 363.23" style="fill:#263238"></polygon>
    <polygon points="260.34 441.26 260.34 448.93 273.08 448.93 303.87 418.14 303.87 397.74 260.34 441.26" style="fill:#263238"></polygon>
    <polygon points="289.59 294.96 260.34 324.21 260.34 344.61 303.87 301.08 303.87 294.96 289.59 294.96" style="fill:#263238"></polygon>
    <polygon points="260.34 402.25 260.34 422.64 303.87 379.12 303.87 358.72 260.34 402.25" style="fill:#263238"></polygon>
  </g>
</svg>
